<?xml version="1.0" encoding="utf-8"?>
<!-- Generator: Adobe Illustrator 22.0.1, SVG Export Plug-In . SVG Version: 6.00 Build 0)  -->
<svg version="1.1" id="Layer_1" xmlns="http://www.w3.org/2000/svg" xmlns:xlink="http://www.w3.org/1999/xlink" x="0px" y="0px"
	 viewBox="0 0 20 20" style="enable-background:new 0 0 20 20;" xml:space="preserve">
<style type="text/css">
	.st0{fill:#A02F89;}
</style>
<g>
	<path class="st0" d="M11.2,11l6.4-6.4c0.7-0.7,0.7-1.9,0-2.7c-0.7-0.7-1.9-0.7-2.7,0l-5,5l-5-5c-0.7-0.7-1.9-0.7-2.7,0
		C1.8,2.3,1.6,2.8,1.6,3.3c0,0.5,0.2,1,0.5,1.3L8.5,11C9.3,11.7,10.5,11.7,11.2,11z"/>
	<path class="st0" d="M11.2,18.6l6.4-6.4c0.7-0.7,0.7-1.9,0-2.7c-0.7-0.7-1.9-0.7-2.7,0l-5,5l-5-5c-0.7-0.7-1.9-0.7-2.7,0
		c-0.4,0.4-0.5,0.8-0.5,1.3c0,0.5,0.2,1,0.5,1.3l6.4,6.4C9.3,19.3,10.5,19.3,11.2,18.6z"/>
</g>
</svg>
