<?xml version="1.0" encoding="utf-8"?>
<!-- Generator: Adobe Illustrator 22.0.1, SVG Export Plug-In . SVG Version: 6.00 Build 0)  -->
<svg version="1.1" id="Layer_1" xmlns="http://www.w3.org/2000/svg" xmlns:xlink="http://www.w3.org/1999/xlink" x="0px" y="0px"
	 viewBox="0 0 67.2 63.5" style="enable-background:new 0 0 67.2 63.5;" xml:space="preserve">
<style type="text/css">
	.st0{fill:#6EC7BB;stroke:#6EC7BB;stroke-width:2.0797;stroke-miterlimit:10;}
	.st1{fill:#9A3A95;}
</style>
<g>
	<path class="st0" d="M64.1,52.4c0,4.8-3.9,8.6-8.7,8.6h-44c-4.8,0-8.7-3.9-8.7-8.6V11.1c0-4.8,3.9-8.6,8.6-8.6h44.1
		c4.8,0,8.6,3.9,8.6,8.6L64.1,52.4L64.1,52.4z"/>
	<path class="st1" d="M41.9,18.6c10.6-7.3,4.2-14.2,4.2-14.2C43.9,4.7,34.3,6.8,31,12.6c-3.4,5.8-3.3,8.1-3.7,7.2
		c-0.4-0.9-2.1-3.6-2.1-3.6c-2.5,2.3-7.2,8.6-7.4,16c-0.2,7.4,3,12.4,3,12.4c4.1-20.1,16.5-29.4,14.4-27.2
		C33.3,19.3,24,48.3,22,54.3l-1.1,2.8c0,0,0.7,3.1,0.5,3.7l0.1-0.1l0,0c0,0,1.8-2.5,2.3-2.8l0.4-3.1l0,0c0.7-3.1,2-5.9,2-5.9
		c14.4-3.7,19-18.7,15.9-16.4c-3.1,2.3-7.4,2.6-7.4,2.6s1.9-3.3,3.1-4c12.2-7.5,9.5-12.9,9.5-12.9C43.5,20.8,41.9,18.6,41.9,18.6z"
		/>
</g>
</svg>
